<?xml version="1.0" encoding="UTF-8"?>
<svg width="16px" height="16px" viewBox="0 0 16 16" version="1.1" xmlns="http://www.w3.org/2000/svg" xmlns:xlink="http://www.w3.org/1999/xlink">
    <title>验证码</title>
    <g id="Asset-Templates" stroke="none" stroke-width="1" fill="none" fill-rule="evenodd">
        <g id="6.登录/登录页4" transform="translate(-930.000000, -492.000000)" fill-rule="nonzero">
            <g id="编组-3" transform="translate(860.000000, 130.000000)">
                <g id="编组-2" transform="translate(60.000000, 232.000000)">
                    <g id="编组-13">
                        <g id="编组-10" transform="translate(0.000000, 126.000000)">
                            <g id="编组-9" transform="translate(10.000000, 4.000000)">
                                <rect id="Rectangle-path" fill="#000000" opacity="0" x="0" y="0" width="16" height="16"></rect>
                                <g id="编组" transform="translate(1.000000, 0.000000)" fill="#E2E2E2">
                                    <path d="M6.81176471,-1.17239551e-13 C6.81176471,-1.17239551e-13 9.24926471,2.10220588 13.6235294,2.14411765 L13.6235294,2.14411765 L13.5904412,2.14632353 L13.5904412,9.79852941 L13.5794118,9.79852941 C12.4235294,13.3632353 9.825,15.8536765 6.80073529,15.8536765 C3.78308824,15.8536765 1.19338235,13.3786765 0.0330882353,9.82720588 L0.0330882353,9.82720588 L0.0330882353,2.14411765 L1.03383968e-12,2.14411765 C4.14195046,2.10441176 6.54960078,0.215577644 6.79156411,0.0168629881 Z M9.68602941,5 L6.19632353,8.57794118 L4.41397059,6.81102941 L3,8.02867647 L5.78382353,10.5279412 C6.06176471,10.7772059 6.48529412,10.7661765 6.75,10.5014706 L11.1992647,6.05220588 L9.68602941,5 Z" id="形状结合"></path>
                                </g>
                            </g>
                        </g>
                    </g>
                </g>
            </g>
        </g>
    </g>
</svg>